<svg id="svg" version="1.1" xmlns="http://www.w3.org/2000/svg" xmlns:xlink="http://www.w3.org/1999/xlink" width="400" height="396.25" viewBox="0, 0, 400,396.25"><g id="svgg"><path id="path0" d="M156.194 20.614 C 156.194 20.833,155.481 21.011,154.609 21.011 C 153.736 21.011,153.023 21.166,153.023 21.357 C 153.023 21.547,152.309 21.817,151.437 21.956 C 150.565 22.095,149.851 22.386,149.851 22.601 C 149.851 22.817,149.596 22.993,149.285 22.993 C 148.974 22.993,148.475 23.237,148.176 23.535 C 147.878 23.834,147.241 24.203,146.760 24.355 C 146.280 24.507,145.887 24.799,145.887 25.002 C 145.887 25.205,145.717 25.372,145.510 25.372 C 145.085 25.372,142.830 27.626,141.923 28.957 C 141.596 29.437,141.150 30.038,140.932 30.292 C 140.147 31.206,139.594 32.435,139.328 33.851 C 139.179 34.643,138.900 35.389,138.706 35.508 C 138.252 35.789,138.247 44.871,138.700 46.067 C 138.890 46.567,139.375 48.048,139.778 49.356 C 140.182 50.664,140.739 52.180,141.016 52.725 C 141.294 53.271,141.522 53.940,141.524 54.212 C 141.525 54.485,141.666 54.708,141.836 54.708 C 142.006 54.708,142.350 55.198,142.600 55.798 C 143.343 57.580,144.837 60.002,145.742 60.890 C 146.207 61.346,146.709 62.104,146.858 62.574 C 147.008 63.044,147.296 63.429,147.499 63.429 C 147.703 63.429,147.869 63.632,147.869 63.879 C 147.869 64.127,148.294 64.723,148.814 65.205 C 149.333 65.686,149.881 66.465,150.030 66.935 C 150.179 67.405,150.468 67.790,150.671 67.790 C 150.874 67.790,151.041 67.992,151.041 68.240 C 151.041 68.488,151.487 69.103,152.032 69.609 C 152.577 70.114,153.023 70.701,153.023 70.914 C 153.023 71.127,153.246 71.537,153.519 71.825 C 153.792 72.113,154.461 73.017,155.005 73.833 C 155.550 74.649,156.130 75.318,156.293 75.319 C 156.457 75.321,156.591 75.525,156.591 75.772 C 156.591 76.020,157.037 76.636,157.582 77.141 C 158.127 77.646,158.573 78.169,158.573 78.303 C 158.573 78.595,160.528 81.303,161.144 81.863 C 161.383 82.081,161.988 82.929,162.487 83.746 C 162.986 84.564,163.559 85.233,163.759 85.233 C 163.959 85.233,164.123 85.424,164.123 85.658 C 164.123 85.891,164.346 86.315,164.618 86.600 C 164.891 86.885,165.382 87.523,165.709 88.018 C 166.036 88.512,166.794 89.432,167.393 90.062 C 167.993 90.692,168.484 91.336,168.484 91.494 C 168.484 91.653,168.930 92.263,169.475 92.851 C 170.020 93.439,170.466 94.097,170.466 94.314 C 170.466 94.531,170.693 94.851,170.971 95.025 C 171.249 95.199,171.812 95.877,172.223 96.531 C 172.633 97.185,173.209 97.863,173.501 98.038 C 173.794 98.212,174.034 98.598,174.034 98.896 C 174.034 99.195,174.174 99.498,174.346 99.571 C 174.517 99.643,175.275 100.501,176.031 101.477 C 176.786 102.453,177.626 103.491,177.899 103.785 C 178.171 104.078,178.397 104.439,178.401 104.587 C 178.404 104.735,178.895 105.415,179.491 106.099 C 181.543 108.451,182.163 109.232,183.152 110.707 C 183.697 111.520,184.277 112.186,184.440 112.188 C 184.604 112.189,184.737 112.393,184.737 112.640 C 184.737 112.888,185.142 113.468,185.638 113.929 C 186.133 114.390,186.950 115.436,187.454 116.254 C 187.958 117.071,188.534 117.740,188.734 117.740 C 188.934 117.740,189.098 117.931,189.098 118.165 C 189.098 118.399,189.321 118.838,189.594 119.142 C 190.737 120.418,191.357 121.202,193.018 123.473 C 193.981 124.790,195.009 126.010,195.303 126.184 C 195.597 126.359,195.837 126.694,195.837 126.931 C 195.837 127.167,196.150 127.649,196.531 128.002 C 196.913 128.355,197.663 129.268,198.198 130.031 C 199.433 131.790,199.755 132.196,201.090 133.687 C 201.690 134.357,202.180 135.065,202.180 135.261 C 202.180 135.457,202.585 136.011,203.079 136.491 C 203.573 136.971,204.771 138.434,205.742 139.742 C 206.712 141.051,207.730 142.389,208.004 142.716 C 210.432 145.612,210.902 146.242,210.902 146.600 C 210.902 146.826,211.042 147.070,211.214 147.142 C 211.385 147.215,212.144 148.069,212.899 149.041 C 213.654 150.012,214.648 151.172,215.108 151.617 C 215.569 152.063,216.068 152.820,216.219 153.300 C 216.369 153.779,216.840 154.282,217.265 154.417 C 217.690 154.552,218.038 154.911,218.038 155.216 C 218.038 155.521,218.573 156.318,219.227 156.987 C 219.881 157.656,220.416 158.346,220.416 158.520 C 220.416 158.695,220.946 159.357,221.595 159.993 C 222.243 160.629,222.778 161.308,222.784 161.501 C 222.790 161.694,223.220 162.246,223.740 162.727 C 224.259 163.209,224.806 163.987,224.956 164.457 C 225.105 164.928,225.393 165.312,225.597 165.312 C 225.800 165.312,225.965 166.070,225.964 166.997 C 225.963 168.673,223.946 171.655,222.815 171.655 C 222.586 171.655,222.398 171.833,222.398 172.052 C 222.398 172.270,221.596 172.448,220.614 172.448 C 219.633 172.448,218.831 172.270,218.831 172.052 C 218.831 171.833,218.577 171.655,218.268 171.655 C 217.959 171.655,217.022 170.971,216.187 170.134 C 214.203 168.148,210.982 164.549,210.826 164.144 C 210.677 163.757,207.366 159.960,205.055 157.526 C 204.128 156.550,203.370 155.613,203.370 155.443 C 203.370 155.274,202.567 154.321,201.586 153.326 C 200.605 152.331,199.802 151.396,199.802 151.249 C 199.802 151.103,198.910 150.100,197.820 149.021 C 196.729 147.942,195.837 146.885,195.837 146.671 C 195.837 146.458,195.124 145.570,194.252 144.698 C 193.380 143.826,192.665 142.978,192.664 142.815 C 192.663 142.553,191.309 141.058,189.808 139.662 C 188.975 138.887,188.305 138.013,188.305 137.701 C 188.305 137.541,187.592 136.744,186.720 135.931 C 185.847 135.118,185.132 134.305,185.131 134.124 C 185.129 133.944,184.334 132.993,183.365 132.012 C 182.395 131.031,181.594 130.070,181.584 129.877 C 181.574 129.684,181.165 129.144,180.674 128.677 C 180.183 128.210,178.896 126.762,177.813 125.460 C 176.730 124.158,175.437 122.699,174.939 122.219 C 174.441 121.739,174.034 121.224,174.034 121.075 C 174.034 120.926,173.632 120.426,173.142 119.963 C 172.651 119.500,171.747 118.498,171.133 117.737 C 169.226 115.374,167.557 113.379,165.881 111.459 C 164.995 110.444,164.014 109.297,163.701 108.909 C 163.388 108.522,162.374 107.400,161.447 106.417 C 160.520 105.433,159.762 104.490,159.762 104.322 C 159.762 104.154,158.870 103.091,157.780 101.960 C 156.690 100.829,155.795 99.769,155.791 99.605 C 155.788 99.441,154.985 98.534,154.007 97.590 C 153.030 96.646,152.230 95.737,152.230 95.570 C 152.230 95.404,151.338 94.337,150.248 93.200 C 149.158 92.063,148.266 91.006,148.266 90.852 C 148.266 90.697,147.463 89.733,146.482 88.709 C 145.500 87.685,144.698 86.731,144.698 86.588 C 144.698 86.446,144.006 85.658,143.161 84.838 C 142.316 84.018,141.558 83.153,141.476 82.917 C 141.322 82.468,138.564 79.301,135.679 76.259 C 134.752 75.282,133.994 74.344,133.994 74.175 C 133.994 74.006,133.191 73.053,132.210 72.057 C 131.229 71.062,130.426 70.104,130.426 69.927 C 130.426 69.751,129.534 68.756,128.444 67.716 C 127.354 66.676,126.462 65.672,126.462 65.485 C 126.462 65.297,125.793 64.438,124.975 63.574 C 124.158 62.711,123.043 61.344,122.498 60.536 C 121.952 59.728,121.203 58.969,120.833 58.849 C 120.463 58.729,120.049 58.284,119.914 57.859 C 119.779 57.434,119.503 57.086,119.299 57.086 C 119.096 57.086,118.930 56.874,118.930 56.614 C 118.930 56.354,118.216 55.476,117.344 54.663 C 116.472 53.849,115.758 53.022,115.758 52.825 C 115.758 52.377,111.344 47.968,110.895 47.968 C 110.715 47.968,110.174 47.564,109.694 47.069 C 108.291 45.624,106.230 44.219,103.469 42.824 C 102.052 42.109,100.576 41.364,100.190 41.169 C 99.803 40.974,98.683 40.705,97.701 40.570 C 96.719 40.436,95.820 40.172,95.704 39.984 C 95.423 39.530,86.819 39.543,86.819 39.998 C 86.819 40.193,86.150 40.437,85.332 40.539 C 83.833 40.727,81.239 41.616,80.872 42.067 C 80.763 42.202,80.302 42.427,79.846 42.569 C 79.391 42.711,78.465 43.315,77.788 43.911 C 77.112 44.507,76.012 45.439,75.345 45.982 C 74.678 46.524,74.133 47.098,74.133 47.257 C 74.133 47.415,73.598 48.092,72.944 48.761 C 72.289 49.430,71.754 50.224,71.754 50.526 C 71.754 50.827,71.620 51.133,71.457 51.206 C 70.951 51.431,69.772 53.798,69.772 54.590 C 69.772 55.004,69.551 55.563,69.280 55.834 C 68.944 56.170,68.788 57.818,68.788 61.051 C 68.788 64.283,68.944 65.931,69.280 66.267 C 69.551 66.538,69.772 67.009,69.772 67.314 C 69.772 67.935,70.973 70.654,71.383 70.961 C 71.528 71.070,71.773 71.561,71.926 72.052 C 72.079 72.542,72.370 72.944,72.574 72.944 C 72.777 72.944,72.944 73.202,72.944 73.518 C 72.944 73.835,73.180 74.236,73.470 74.410 C 73.760 74.585,74.333 75.307,74.745 76.016 C 75.156 76.724,75.633 77.304,75.804 77.304 C 75.975 77.304,76.115 77.493,76.115 77.724 C 76.115 78.216,78.465 81.322,79.187 81.784 C 79.460 81.958,79.683 82.283,79.683 82.506 C 79.683 82.729,79.906 83.147,80.178 83.436 C 80.451 83.725,81.120 84.533,81.665 85.233 C 82.210 85.933,82.846 86.709,83.078 86.959 C 83.310 87.209,83.667 87.706,83.871 88.064 C 84.310 88.835,86.569 91.584,88.107 93.219 C 88.707 93.857,89.197 94.537,89.197 94.730 C 89.197 94.924,89.732 95.618,90.387 96.272 C 91.041 96.926,91.576 97.578,91.576 97.721 C 91.576 97.863,92.066 98.495,92.666 99.126 C 94.138 100.673,94.747 101.414,94.747 101.654 C 94.747 101.765,95.282 102.403,95.937 103.072 C 96.591 103.741,97.126 104.421,97.126 104.583 C 97.126 104.745,97.834 105.586,98.699 106.453 C 99.564 107.319,100.277 108.186,100.284 108.379 C 100.291 108.572,100.699 109.107,101.189 109.568 C 101.680 110.029,102.688 111.180,103.430 112.125 C 105.167 114.339,106.197 115.565,107.467 116.930 C 108.031 117.536,108.869 118.635,109.329 119.372 C 109.789 120.110,110.621 121.051,111.178 121.463 C 111.735 121.875,112.190 122.378,112.190 122.581 C 112.190 122.784,112.413 123.174,112.686 123.447 C 112.958 123.720,113.895 124.808,114.767 125.865 C 115.639 126.922,116.799 128.256,117.344 128.829 C 117.889 129.402,118.804 130.487,119.378 131.239 C 119.951 131.991,120.843 133.080,121.360 133.659 C 121.877 134.237,122.867 135.397,123.561 136.236 C 126.788 140.135,127.513 140.972,128.345 141.762 C 128.835 142.227,129.238 142.766,129.239 142.959 C 129.241 143.446,131.570 145.887,132.032 145.887 C 132.239 145.887,132.408 146.154,132.408 146.479 C 132.408 146.805,133.211 147.886,134.192 148.881 C 135.173 149.877,135.976 150.777,135.976 150.882 C 135.976 151.099,136.377 151.586,138.355 153.773 C 139.118 154.617,140.310 155.997,141.004 156.841 C 143.994 160.475,144.948 161.578,145.788 162.376 C 146.278 162.842,146.680 163.396,146.680 163.608 C 146.680 163.820,147.354 164.602,148.178 165.346 C 149.002 166.091,150.063 167.324,150.535 168.087 C 151.007 168.850,151.850 169.812,152.407 170.224 C 152.964 170.636,153.422 171.171,153.425 171.413 C 153.429 171.655,154.321 172.718,155.408 173.775 C 156.494 174.832,157.384 175.857,157.384 176.053 C 157.384 176.248,158.186 177.222,159.167 178.217 C 160.149 179.213,160.951 180.118,160.951 180.230 C 160.951 180.342,161.174 180.680,161.447 180.981 C 161.720 181.283,162.656 182.350,163.528 183.353 C 164.400 184.356,166.051 186.171,167.195 187.388 C 168.340 188.604,169.277 189.710,169.277 189.845 C 169.277 189.980,170.079 190.953,171.060 192.006 C 172.042 193.060,172.844 194.020,172.844 194.141 C 172.844 194.261,173.246 194.738,173.736 195.202 C 174.227 195.665,175.421 197.023,176.390 198.220 C 177.358 199.417,178.652 200.877,179.264 201.464 C 179.876 202.052,180.377 202.633,180.377 202.756 C 180.377 203.007,181.990 204.885,183.647 206.565 C 184.247 207.172,184.737 207.772,184.737 207.898 C 184.737 208.024,185.406 208.807,186.224 209.639 C 188.202 211.651,190.287 214.322,190.287 214.843 C 190.287 215.074,190.466 215.263,190.684 215.263 C 190.902 215.263,191.080 215.887,191.080 216.650 C 191.080 217.413,190.921 218.038,190.727 218.038 C 190.532 218.038,190.265 218.439,190.132 218.930 C 189.632 220.773,186.644 221.977,183.863 221.455 C 182.477 221.195,181.576 220.454,178.989 217.445 C 178.117 216.431,176.378 214.528,175.124 213.217 C 173.870 211.906,172.844 210.701,172.844 210.540 C 172.844 210.378,171.596 208.985,170.069 207.444 C 168.543 205.902,167.294 204.531,167.294 204.397 C 167.294 204.262,166.447 203.298,165.411 202.255 C 164.376 201.211,162.751 199.474,161.801 198.395 C 159.143 195.375,154.741 190.562,151.239 186.848 C 146.912 182.260,147.076 182.445,147.076 182.174 C 147.076 182.041,145.382 180.237,143.310 178.166 C 141.239 176.094,139.544 174.266,139.544 174.102 C 139.544 173.938,137.849 172.076,135.778 169.964 C 133.707 167.851,132.012 166.005,132.012 165.861 C 132.012 165.717,130.406 164.005,128.444 162.055 C 126.482 160.106,124.876 158.372,124.876 158.203 C 124.876 158.033,123.226 156.185,121.209 154.095 C 118.270 151.049,112.787 145.247,109.514 141.721 C 109.242 141.427,109.019 141.095,109.019 140.982 C 109.019 140.870,107.279 138.983,105.154 136.788 C 103.028 134.594,100.664 132.066,99.901 131.171 C 97.837 128.749,93.107 124.083,92.716 124.083 C 92.529 124.083,91.864 123.548,91.239 122.894 C 90.614 122.240,89.975 121.705,89.820 121.705 C 89.664 121.705,89.288 121.482,88.984 121.209 C 87.634 119.998,87.222 119.739,86.258 119.497 C 85.694 119.356,85.233 119.106,85.233 118.943 C 85.233 118.523,81.594 116.686,80.121 116.362 C 79.444 116.213,78.890 115.945,78.890 115.766 C 78.890 115.586,77.820 115.315,76.511 115.164 C 75.203 115.012,74.133 114.727,74.133 114.530 C 74.133 114.073,63.944 114.057,63.662 114.514 C 63.546 114.701,62.657 114.963,61.687 115.096 C 60.159 115.306,58.322 116.120,54.643 118.221 C 51.701 119.901,46.779 125.903,46.779 127.810 C 46.779 128.159,46.619 128.444,46.424 128.444 C 45.633 128.444,45.248 134.600,45.797 138.454 C 45.945 139.490,46.226 140.337,46.422 140.337 C 46.619 140.337,46.780 140.828,46.781 141.427 C 46.783 142.027,47.034 142.996,47.339 143.581 C 47.644 144.166,48.014 145.192,48.161 145.860 C 48.308 146.529,48.592 147.076,48.793 147.076 C 48.993 147.076,49.158 147.390,49.158 147.774 C 49.158 148.158,49.604 148.953,50.149 149.541 C 50.694 150.129,51.140 150.783,51.140 150.995 C 51.140 151.207,51.374 151.616,51.661 151.904 C 51.948 152.192,52.350 152.729,52.555 153.097 C 53.032 153.953,55.275 156.625,57.185 158.612 C 58.003 159.463,58.672 160.326,58.672 160.531 C 58.672 160.735,59.742 161.967,61.051 163.267 C 62.359 164.567,63.429 165.756,63.429 165.909 C 63.429 166.062,64.678 167.436,66.204 168.962 C 67.730 170.488,68.979 171.875,68.979 172.044 C 68.979 172.213,70.585 173.990,72.547 175.994 C 74.509 177.998,76.118 179.759,76.122 179.908 C 76.125 180.057,76.883 180.913,77.806 181.811 C 78.729 182.709,79.946 183.958,80.511 184.586 C 81.075 185.214,82.056 186.196,82.691 186.767 C 83.326 187.338,84.291 188.388,84.836 189.100 C 85.382 189.811,88.102 192.706,90.882 195.532 C 93.662 198.358,95.937 200.790,95.937 200.938 C 95.937 201.085,99.058 204.366,102.874 208.230 C 106.690 212.093,109.812 215.362,109.812 215.495 C 109.812 215.628,113.558 219.486,118.137 224.068 C 122.716 228.651,126.462 232.539,126.462 232.709 C 126.462 232.879,131.992 238.572,138.751 245.360 C 145.510 252.148,151.041 257.831,151.041 257.989 C 151.041 258.148,152.780 260.013,154.906 262.134 C 159.821 267.038,160.951 268.657,160.951 270.791 C 160.951 271.835,159.817 273.538,159.122 273.538 C 158.820 273.538,158.573 273.717,158.573 273.935 C 158.573 274.153,158.127 274.331,157.582 274.331 C 157.037 274.331,156.591 274.153,156.591 273.935 C 156.591 273.717,156.189 273.537,155.699 273.536 C 154.357 273.532,153.392 272.723,146.239 265.610 C 142.621 262.012,139.079 258.622,138.367 258.077 C 137.656 257.532,136.871 256.858,136.624 256.578 C 135.762 255.603,134.094 253.907,132.958 252.849 C 132.329 252.263,131.617 251.550,131.377 251.264 C 130.784 250.556,128.493 248.563,128.274 248.563 C 128.176 248.563,126.413 246.887,124.354 244.839 C 122.296 242.791,120.234 240.995,119.771 240.848 C 119.308 240.701,118.929 240.459,118.929 240.310 C 118.929 240.161,118.438 239.551,117.839 238.954 C 114.924 236.049,113.022 234.291,112.792 234.291 C 112.652 234.291,111.274 233.043,109.729 231.516 C 108.185 229.990,106.780 228.741,106.608 228.741 C 106.435 228.741,104.974 227.403,103.360 225.768 C 101.745 224.133,100.291 222.795,100.128 222.795 C 99.965 222.795,98.735 221.724,97.394 220.416 C 96.053 219.108,94.811 218.038,94.634 218.038 C 94.458 218.038,93.919 217.636,93.437 217.146 C 92.547 216.239,91.460 215.472,90.387 214.992 C 90.059 214.845,89.703 214.614,89.594 214.477 C 89.172 213.948,85.962 212.488,85.221 212.488 C 84.791 212.488,84.440 212.336,84.440 212.150 C 84.440 211.389,78.465 210.390,75.381 210.636 C 72.427 210.872,69.772 211.586,69.772 212.147 C 69.772 212.300,69.237 212.542,68.583 212.686 C 67.929 212.829,67.393 213.111,67.393 213.312 C 67.393 213.513,67.122 213.677,66.791 213.677 C 66.002 213.677,60.399 219.341,60.036 220.507 C 59.881 221.002,59.587 221.515,59.381 221.648 C 59.176 221.780,58.909 222.627,58.788 223.531 C 58.667 224.434,58.413 225.173,58.223 225.173 C 57.763 225.173,57.780 230.615,58.241 230.900 C 58.440 231.023,58.723 231.837,58.871 232.708 C 59.018 233.579,59.287 234.291,59.468 234.291 C 59.650 234.291,59.916 234.827,60.059 235.481 C 60.203 236.135,60.466 236.670,60.643 236.670 C 60.820 236.670,61.077 237.116,61.213 237.661 C 61.350 238.206,61.637 238.652,61.851 238.652 C 62.065 238.652,62.240 238.920,62.240 239.247 C 62.240 239.574,62.418 239.841,62.636 239.841 C 62.854 239.841,63.033 240.111,63.033 240.440 C 63.033 240.769,63.389 241.344,63.826 241.717 C 64.262 242.091,64.618 242.543,64.618 242.722 C 64.618 242.901,65.064 243.528,65.610 244.116 C 66.155 244.704,66.601 245.329,66.601 245.505 C 66.601 245.682,67.047 246.239,67.592 246.744 C 68.137 247.249,68.583 247.799,68.583 247.966 C 68.583 248.132,69.163 248.931,69.871 249.741 C 70.580 250.550,71.962 252.157,72.944 253.311 C 73.925 254.465,75.394 256.144,76.209 257.041 C 77.024 257.938,77.693 258.794,77.696 258.943 C 77.698 259.091,78.048 259.324,78.473 259.458 C 78.898 259.593,79.365 260.080,79.511 260.540 C 79.788 261.411,112.922 294.696,114.551 295.738 C 115.062 296.065,115.944 296.852,116.511 297.487 C 117.078 298.122,118.058 299.103,118.688 299.668 C 119.810 300.673,120.272 301.142,121.150 302.167 C 121.775 302.896,124.042 304.856,124.261 304.856 C 124.362 304.856,125.972 306.373,127.838 308.226 C 129.704 310.079,131.393 311.596,131.592 311.596 C 131.790 311.596,133.374 313.023,135.111 314.767 C 136.849 316.511,138.368 317.939,138.488 317.939 C 138.608 317.939,139.906 319.098,141.373 320.515 C 142.840 321.933,144.169 323.092,144.328 323.092 C 144.486 323.092,145.775 324.207,147.194 325.570 C 149.969 328.237,153.511 331.401,154.964 332.513 C 155.459 332.891,156.834 334.138,158.020 335.282 C 159.206 336.427,160.276 337.364,160.397 337.364 C 160.518 337.364,161.401 338.122,162.358 339.049 C 164.433 341.058,165.210 341.724,165.476 341.724 C 165.585 341.724,166.663 342.706,167.872 343.905 C 169.081 345.104,170.166 346.085,170.284 346.085 C 170.402 346.085,170.893 346.455,171.374 346.907 C 171.856 347.359,172.754 348.117,173.371 348.592 C 173.987 349.067,175.261 350.168,176.202 351.041 C 177.143 351.913,178.500 353.072,179.218 353.617 C 179.936 354.163,181.088 355.188,181.778 355.897 C 182.469 356.606,183.150 357.185,183.292 357.185 C 183.434 357.185,184.476 358.077,185.607 359.167 C 186.738 360.258,187.801 361.150,187.969 361.150 C 188.137 361.150,188.981 361.863,189.845 362.735 C 190.708 363.608,191.532 364.321,191.675 364.321 C 191.818 364.321,192.663 365.035,193.553 365.907 C 194.443 366.779,195.308 367.493,195.476 367.493 C 195.644 367.493,196.442 368.116,197.249 368.877 C 198.056 369.638,199.238 370.664,199.875 371.157 C 200.513 371.649,201.618 372.587,202.332 373.241 C 204.458 375.189,206.963 377.181,207.769 377.563 C 208.184 377.760,208.523 378.072,208.523 378.257 C 208.523 378.442,208.791 378.593,209.118 378.593 C 209.445 378.593,209.714 378.726,209.715 378.890 C 209.717 379.054,210.386 379.632,211.202 380.175 C 212.018 380.718,212.775 381.253,212.884 381.364 C 213.275 381.762,214.681 382.584,215.362 382.813 C 215.743 382.941,216.056 383.189,216.056 383.365 C 216.056 383.540,216.592 383.801,217.248 383.945 C 217.904 384.089,218.351 384.352,218.242 384.529 C 218.133 384.706,218.531 384.973,219.127 385.123 C 219.723 385.273,220.301 385.515,220.412 385.663 C 220.721 386.072,225.750 388.503,226.287 388.503 C 226.547 388.503,226.759 388.674,226.759 388.882 C 226.759 389.090,227.384 389.378,228.147 389.521 C 228.910 389.664,229.534 389.940,229.534 390.133 C 229.534 390.327,229.781 390.486,230.084 390.486 C 230.386 390.486,231.144 390.752,231.768 391.078 C 232.393 391.404,233.305 391.671,233.796 391.672 C 234.286 391.674,234.688 391.842,234.688 392.047 C 234.688 392.252,235.535 392.544,236.571 392.697 C 237.607 392.849,238.557 393.133,238.682 393.326 C 238.807 393.520,239.833 393.787,240.961 393.921 C 242.090 394.055,243.013 394.318,243.013 394.505 C 243.013 394.693,243.726 394.846,244.599 394.846 C 245.471 394.846,246.184 394.998,246.184 395.183 C 246.184 396.743,281.571 396.759,283.231 395.200 C 283.438 395.006,284.285 394.846,285.114 394.846 C 285.943 394.846,286.620 394.686,286.620 394.489 C 286.620 394.292,287.691 394.007,288.999 393.855 C 290.307 393.703,291.378 393.443,291.378 393.277 C 291.378 393.111,292.301 392.865,293.429 392.732 C 294.557 392.598,295.583 392.330,295.708 392.137 C 295.834 391.943,296.780 391.661,297.810 391.509 C 298.841 391.357,299.788 391.065,299.915 390.859 C 300.042 390.654,300.492 390.486,300.915 390.486 C 301.339 390.486,301.685 390.318,301.685 390.113 C 301.685 389.909,302.488 389.621,303.469 389.474 C 304.450 389.327,305.253 389.062,305.253 388.886 C 305.253 388.710,305.833 388.442,306.541 388.291 C 307.250 388.139,308.008 387.884,308.226 387.724 C 308.444 387.563,309.559 387.102,310.704 386.700 C 311.848 386.298,312.785 385.839,312.785 385.682 C 312.785 385.524,313.320 385.277,313.974 385.134 C 314.628 384.990,315.164 384.708,315.164 384.508 C 315.164 384.307,315.372 384.143,315.628 384.143 C 316.136 384.143,321.186 381.772,321.506 381.383 C 321.615 381.251,322.641 380.705,323.786 380.170 C 324.931 379.636,325.867 379.062,325.867 378.896 C 325.867 378.729,326.135 378.593,326.462 378.593 C 326.789 378.593,327.056 378.414,327.056 378.196 C 327.056 377.978,327.311 377.800,327.623 377.800 C 327.934 377.800,328.428 377.577,328.720 377.304 C 329.012 377.032,330.107 376.363,331.153 375.818 C 332.199 375.273,333.356 374.550,333.723 374.212 C 334.090 373.874,334.703 373.478,335.084 373.332 C 335.466 373.187,335.778 372.903,335.778 372.702 C 335.778 372.500,336.224 372.224,336.769 372.087 C 337.314 371.950,337.760 371.663,337.760 371.449 C 337.760 371.235,338.015 371.060,338.326 371.060 C 338.637 371.060,339.243 370.614,339.671 370.069 C 340.100 369.524,340.636 369.078,340.861 369.078 C 341.087 369.078,341.512 368.855,341.805 368.583 C 342.099 368.310,343.137 367.472,344.113 366.720 C 345.089 365.968,346.030 365.121,346.204 364.837 C 346.378 364.553,346.718 364.321,346.959 364.321 C 347.200 364.321,348.534 363.162,349.924 361.744 C 351.314 360.327,352.579 359.167,352.737 359.166 C 353.144 359.163,355.597 356.834,356.913 355.200 C 357.526 354.439,358.903 352.834,359.972 351.635 C 364.260 346.824,364.714 346.265,364.716 345.788 C 364.717 345.515,364.881 345.292,365.082 345.292 C 365.282 345.292,365.852 344.623,366.348 343.806 C 366.845 342.988,367.484 342.176,367.768 342.002 C 368.053 341.828,368.285 341.508,368.285 341.292 C 368.285 341.075,368.598 340.561,368.979 340.148 C 369.361 339.736,370.119 338.542,370.664 337.496 C 371.209 336.450,371.878 335.355,372.151 335.063 C 372.423 334.771,372.646 334.277,372.646 333.966 C 372.646 333.654,372.825 333.399,373.043 333.399 C 373.261 333.399,373.439 333.132,373.439 332.805 C 373.439 332.478,373.614 332.210,373.828 332.210 C 374.042 332.210,374.329 331.764,374.466 331.219 C 374.602 330.674,374.859 330.228,375.036 330.228 C 375.213 330.228,375.476 329.693,375.619 329.039 C 375.763 328.385,376.031 327.849,376.214 327.849 C 376.397 327.849,376.665 327.314,376.809 326.660 C 376.952 326.006,377.205 325.471,377.370 325.471 C 377.536 325.471,378.005 324.490,378.412 323.290 C 378.820 322.091,379.293 321.110,379.463 321.110 C 379.633 321.110,379.887 320.396,380.026 319.524 C 380.166 318.652,380.421 317.939,380.594 317.939 C 380.767 317.939,381.022 317.359,381.161 316.650 C 381.415 315.356,381.544 314.996,382.715 312.329 C 383.064 311.533,383.350 310.507,383.350 310.049 C 383.350 309.591,383.512 309.217,383.709 309.217 C 383.907 309.217,384.191 308.325,384.341 307.235 C 384.491 306.145,384.775 305.253,384.973 305.253 C 385.170 305.253,385.332 304.728,385.332 304.087 C 385.332 303.446,385.498 302.818,385.701 302.693 C 385.903 302.568,386.193 301.442,386.344 300.192 C 386.495 298.942,386.756 297.740,386.922 297.522 C 387.089 297.304,387.355 295.966,387.513 294.549 C 387.671 293.132,387.914 291.794,388.053 291.576 C 388.192 291.358,388.536 289.217,388.819 286.819 C 389.101 284.420,389.520 280.852,389.751 278.890 C 390.519 272.337,390.171 244.995,389.319 244.995 C 389.145 244.995,388.874 242.854,388.718 240.238 C 388.562 237.621,388.296 235.481,388.127 235.481 C 387.958 235.481,387.695 234.103,387.543 232.419 C 387.390 230.736,387.111 229.173,386.924 228.947 C 386.736 228.720,386.459 227.467,386.309 226.161 C 386.159 224.855,385.878 223.726,385.684 223.654 C 385.490 223.581,385.332 222.734,385.332 221.771 C 385.332 220.808,385.171 220.020,384.974 220.020 C 384.777 220.020,384.488 218.147,384.332 215.857 C 384.176 213.568,383.914 211.695,383.751 211.695 C 383.398 211.695,382.583 202.787,382.309 195.937 C 382.203 193.266,381.947 191.080,381.741 191.080 C 381.517 191.080,381.368 186.816,381.368 180.377 C 381.368 173.505,381.510 169.673,381.764 169.673 C 382.004 169.673,382.161 167.963,382.161 165.336 C 382.161 162.950,382.316 160.902,382.506 160.785 C 382.695 160.668,382.979 158.427,383.135 155.806 C 383.291 153.185,383.559 151.041,383.730 151.041 C 383.901 151.041,384.163 149.796,384.313 148.275 C 384.463 146.753,384.753 145.405,384.959 145.278 C 385.164 145.151,385.332 144.552,385.332 143.948 C 385.332 143.343,385.466 142.714,385.629 142.550 C 385.793 142.387,385.940 142.134,385.957 141.989 C 386.099 140.774,386.684 138.477,386.934 138.157 C 387.104 137.939,387.368 137.091,387.521 136.274 C 387.674 135.456,387.941 134.787,388.114 134.787 C 388.287 134.787,388.552 133.895,388.702 132.805 C 388.852 131.715,389.092 130.823,389.237 130.823 C 389.551 130.823,390.338 129.068,390.705 127.552 C 390.849 126.952,391.127 126.462,391.321 126.462 C 391.516 126.462,391.675 126.104,391.675 125.668 C 391.675 125.231,392.032 124.208,392.468 123.394 C 392.904 122.580,393.261 121.589,393.261 121.192 C 393.261 120.794,393.439 120.579,393.657 120.714 C 393.882 120.853,394.054 120.519,394.054 119.944 C 394.054 119.386,394.218 118.930,394.418 118.930 C 394.619 118.930,394.901 118.394,395.045 117.740 C 395.188 117.086,395.456 116.551,395.639 116.551 C 395.823 116.551,396.090 116.016,396.234 115.362 C 396.378 114.708,396.645 114.172,396.829 114.172 C 397.012 114.172,397.288 113.593,397.441 112.884 C 397.595 112.175,397.842 111.506,397.989 111.397 C 400.055 109.870,400.842 96.835,398.980 94.974 C 398.669 94.662,398.414 94.216,398.414 93.983 C 398.414 93.749,398.280 93.557,398.117 93.557 C 397.953 93.556,397.463 93.022,397.027 92.369 C 396.591 91.716,396.092 91.181,395.918 91.181 C 395.744 91.180,395.188 90.733,394.683 90.188 C 394.178 89.643,393.562 89.197,393.314 89.197 C 393.067 89.197,392.864 89.027,392.864 88.819 C 392.864 88.611,392.240 88.323,391.477 88.180 C 390.714 88.037,390.089 87.772,390.089 87.592 C 390.089 87.411,389.286 87.143,388.305 86.996 C 387.324 86.849,386.521 86.570,386.521 86.377 C 386.521 86.184,386.111 86.026,385.610 86.026 C 385.108 86.026,384.475 85.803,384.202 85.530 C 383.495 84.824,368.536 84.824,367.829 85.530 C 367.557 85.803,366.745 86.026,366.026 86.026 C 365.306 86.026,364.718 86.184,364.718 86.377 C 364.718 86.570,363.915 86.849,362.934 86.996 C 361.952 87.143,361.150 87.417,361.150 87.604 C 361.150 87.792,360.622 88.061,359.977 88.203 C 359.332 88.344,357.905 88.894,356.807 89.423 C 355.709 89.953,354.631 90.387,354.412 90.387 C 354.193 90.387,354.014 90.565,354.014 90.783 C 354.014 91.001,353.779 91.179,353.493 91.179 C 352.774 91.179,347.886 94.501,346.213 96.125 C 345.458 96.858,344.257 97.858,343.544 98.346 C 342.831 98.835,341.820 99.875,341.298 100.658 C 340.775 101.441,340.056 102.350,339.699 102.679 C 338.682 103.615,336.174 107.000,336.174 107.437 C 336.174 107.653,335.996 107.830,335.778 107.830 C 335.560 107.830,335.382 108.097,335.382 108.424 C 335.382 108.751,335.223 109.019,335.028 109.019 C 334.834 109.019,334.563 109.465,334.426 110.010 C 334.289 110.555,334.002 111.001,333.788 111.001 C 333.574 111.001,333.399 111.224,333.398 111.497 C 333.397 111.769,332.964 112.843,332.436 113.884 C 331.908 114.924,331.353 116.352,331.203 117.055 C 331.052 117.759,330.791 118.513,330.623 118.731 C 330.455 118.949,330.186 120.109,330.026 121.308 C 329.866 122.507,329.563 123.598,329.352 123.732 C 328.796 124.084,328.842 138.488,329.400 138.673 C 329.937 138.853,329.982 144.039,329.453 145.000 C 329.245 145.379,328.963 147.071,328.825 148.761 C 328.687 150.451,328.411 151.833,328.212 151.833 C 328.013 151.833,327.849 152.193,327.849 152.632 C 327.849 153.071,327.685 153.740,327.485 154.118 C 326.299 156.358,325.471 158.276,325.471 158.783 C 325.471 159.104,325.292 159.366,325.074 159.366 C 324.856 159.366,324.678 159.551,324.678 159.777 C 324.678 160.229,318.945 166.105,318.504 166.105 C 318.352 166.105,317.834 166.530,317.352 167.050 C 316.871 167.569,316.092 168.117,315.622 168.266 C 315.152 168.415,314.767 168.689,314.767 168.875 C 314.767 169.061,314.232 169.331,313.578 169.475 C 312.924 169.618,312.389 169.892,312.389 170.083 C 312.389 170.274,311.762 170.547,310.997 170.691 C 310.231 170.835,309.507 171.110,309.387 171.304 C 309.268 171.497,308.735 171.655,308.203 171.655 C 307.670 171.655,307.235 171.833,307.235 172.052 C 307.235 172.291,305.583 172.448,303.072 172.448 C 300.562 172.448,298.910 172.291,298.910 172.052 C 298.910 171.833,298.454 171.655,297.897 171.655 C 297.340 171.655,295.923 171.120,294.747 170.466 C 293.572 169.812,292.352 169.277,292.036 169.277 C 291.721 169.277,291.360 169.009,291.234 168.682 C 291.109 168.355,290.826 168.087,290.606 168.087 C 290.100 168.087,284.638 162.736,284.638 162.241 C 284.638 162.039,283.925 161.234,283.053 160.451 C 282.180 159.668,281.467 158.836,281.467 158.602 C 281.467 158.368,280.753 157.463,279.881 156.591 C 279.009 155.719,278.295 154.871,278.294 154.708 C 278.292 154.544,277.757 153.840,277.104 153.143 C 276.451 152.447,275.917 151.764,275.917 151.626 C 275.917 151.489,275.382 150.841,274.727 150.187 C 274.073 149.533,273.538 148.870,273.538 148.714 C 273.538 148.558,272.914 147.769,272.151 146.960 C 271.388 146.151,270.763 145.347,270.763 145.174 C 270.763 145.000,270.236 144.421,269.591 143.886 C 268.946 143.351,268.411 142.699,268.401 142.436 C 268.392 142.174,267.939 141.513,267.393 140.968 C 266.848 140.423,266.402 139.835,266.401 139.661 C 266.400 139.488,265.864 138.776,265.211 138.079 C 264.558 137.382,264.024 136.674,264.024 136.506 C 264.024 136.337,263.608 135.837,263.100 135.394 C 262.592 134.951,262.012 134.301,261.812 133.949 C 261.394 133.215,259.356 130.590,258.474 129.650 C 258.147 129.301,257.433 128.353,256.888 127.543 C 256.343 126.733,255.763 126.070,255.600 126.068 C 255.436 126.067,255.302 125.863,255.302 125.615 C 255.302 125.368,254.901 124.786,254.410 124.323 C 253.920 123.860,253.072 122.815,252.527 122.001 C 251.982 121.187,251.402 120.520,251.239 120.518 C 251.075 120.517,250.942 120.248,250.942 119.921 C 250.942 119.594,250.808 119.325,250.644 119.324 C 250.481 119.323,249.639 118.342,248.773 117.144 C 247.908 115.946,247.060 114.965,246.890 114.965 C 246.720 114.965,246.581 114.713,246.581 114.404 C 246.581 114.095,246.440 113.783,246.269 113.710 C 246.097 113.637,245.339 112.775,244.584 111.794 C 243.829 110.813,243.113 109.921,242.994 109.812 C 242.874 109.703,242.344 108.989,241.815 108.226 C 240.566 106.423,240.256 106.028,238.949 104.568 C 238.350 103.899,237.859 103.194,237.859 103.003 C 237.859 102.811,237.335 102.080,236.694 101.377 C 234.106 98.540,233.499 97.786,233.499 97.411 C 233.499 97.195,233.053 96.605,232.507 96.100 C 231.962 95.595,231.516 95.024,231.516 94.832 C 231.516 94.640,230.986 93.963,230.338 93.327 C 229.690 92.691,229.155 91.947,229.149 91.675 C 229.143 91.402,229.004 91.178,228.840 91.177 C 228.677 91.175,228.100 90.506,227.557 89.690 C 227.015 88.874,226.257 87.918,225.873 87.565 C 225.488 87.212,225.173 86.766,225.172 86.574 C 225.171 86.381,224.635 85.654,223.982 84.957 C 223.329 84.260,222.795 83.583,222.795 83.452 C 222.795 83.320,222.349 82.800,221.804 82.294 C 221.259 81.789,220.813 81.212,220.813 81.011 C 220.813 80.630,219.403 78.838,217.542 76.854 C 216.943 76.214,216.452 75.558,216.452 75.394 C 216.452 75.084,215.099 73.257,214.068 72.175 C 213.738 71.829,213.027 70.923,212.488 70.163 C 211.342 68.547,210.641 67.664,209.415 66.293 C 208.925 65.744,208.523 65.119,208.523 64.903 C 208.523 64.688,208.102 64.121,207.587 63.643 C 207.072 63.166,206.318 62.254,205.912 61.616 C 205.505 60.978,204.945 60.313,204.668 60.139 C 204.390 59.965,204.163 59.563,204.163 59.247 C 204.163 58.931,204.029 58.668,203.865 58.663 C 203.702 58.658,202.944 57.770,202.180 56.690 C 201.417 55.609,200.659 54.721,200.496 54.717 C 200.332 54.712,200.198 54.519,200.198 54.288 C 200.198 53.813,198.078 50.992,196.729 49.672 C 196.239 49.192,195.837 48.638,195.837 48.442 C 195.837 48.245,195.436 47.635,194.945 47.086 C 193.679 45.670,193.005 44.797,191.873 43.109 C 191.328 42.296,190.748 41.630,190.585 41.628 C 190.421 41.627,190.287 41.433,190.287 41.198 C 190.287 40.964,189.752 40.236,189.098 39.582 C 188.444 38.928,187.909 38.257,187.909 38.090 C 187.909 37.924,187.195 37.059,186.323 36.170 C 185.451 35.280,184.737 34.424,184.737 34.268 C 184.737 33.900,180.664 29.753,180.291 29.742 C 180.135 29.737,179.492 29.242,178.863 28.642 C 178.233 28.043,177.313 27.284,176.818 26.957 C 176.324 26.630,175.686 26.140,175.401 25.867 C 175.116 25.595,174.692 25.372,174.458 25.372 C 174.225 25.372,174.034 25.197,174.034 24.983 C 174.034 24.769,173.588 24.482,173.043 24.345 C 172.498 24.208,172.052 23.937,172.052 23.743 C 172.052 23.549,171.829 23.388,171.556 23.387 C 171.283 23.386,170.546 23.116,169.918 22.789 C 169.289 22.461,168.085 22.082,167.242 21.948 C 166.399 21.813,165.709 21.547,165.709 21.357 C 165.709 21.166,165.006 21.011,164.146 21.011 C 163.287 21.011,162.474 20.833,162.339 20.614 C 162.204 20.396,160.767 20.218,159.144 20.218 C 157.442 20.218,156.194 20.386,156.194 20.614 " stroke="none" fill="#fccc2b" fill-rule="evenodd"></path><path id="path1" d="M237.284 1.685 C 236.902 2.611,236.428 3.679,236.233 4.058 C 235.290 5.883,236.062 7.661,238.010 8.150 C 238.581 8.294,239.049 8.570,239.049 8.764 C 239.049 8.959,239.226 9.118,239.442 9.118 C 240.082 9.118,243.013 10.470,243.013 10.766 C 243.013 10.915,243.548 11.155,244.202 11.298 C 244.856 11.442,245.391 11.720,245.391 11.917 C 245.391 12.113,245.837 12.386,246.383 12.523 C 246.928 12.660,247.374 12.910,247.374 13.079 C 247.374 13.248,247.686 13.491,248.067 13.619 C 249.054 13.951,250.293 14.782,250.664 15.362 C 250.838 15.634,251.158 15.857,251.375 15.857 C 251.592 15.857,252.250 16.303,252.838 16.848 C 253.426 17.393,254.131 17.839,254.406 17.839 C 254.681 17.839,254.906 17.994,254.906 18.183 C 254.906 18.372,255.587 18.978,256.420 19.529 C 257.253 20.080,258.541 21.174,259.282 21.960 C 260.024 22.746,260.762 23.389,260.923 23.389 C 261.337 23.389,268.385 30.378,268.385 30.789 C 268.385 31.103,269.637 32.506,270.844 33.544 C 271.126 33.788,271.625 34.394,271.952 34.891 C 272.279 35.388,273.038 36.310,273.637 36.940 C 274.237 37.570,274.727 38.181,274.727 38.298 C 274.727 38.415,274.950 38.759,275.223 39.063 C 276.233 40.189,276.558 40.651,276.816 41.328 C 276.962 41.710,277.246 42.022,277.447 42.022 C 277.648 42.022,277.925 42.468,278.062 43.013 C 278.199 43.558,278.485 44.004,278.699 44.004 C 278.913 44.004,279.088 44.272,279.088 44.599 C 279.088 44.926,279.263 45.193,279.477 45.193 C 279.691 45.193,279.978 45.639,280.115 46.184 C 280.252 46.729,280.484 47.175,280.630 47.175 C 280.777 47.175,281.510 48.335,282.260 49.752 C 283.009 51.169,283.747 52.329,283.901 52.329 C 284.054 52.329,284.296 52.864,284.440 53.518 C 284.584 54.172,284.851 54.708,285.035 54.708 C 285.218 54.708,285.486 55.243,285.629 55.897 C 285.773 56.551,286.055 57.086,286.255 57.086 C 286.456 57.086,286.620 57.354,286.620 57.681 C 286.620 58.008,286.799 58.276,287.017 58.276 C 287.235 58.276,287.413 58.544,287.413 58.872 C 287.413 59.199,287.770 60.133,288.206 60.947 C 288.642 61.761,288.999 62.652,288.999 62.928 C 288.999 63.204,289.163 63.429,289.364 63.429 C 289.565 63.429,289.846 63.964,289.990 64.618 C 290.134 65.273,290.416 65.808,290.616 65.808 C 290.817 65.808,290.981 66.254,290.981 66.799 C 290.981 67.344,291.145 67.790,291.346 67.790 C 291.547 67.790,291.831 68.337,291.978 69.006 C 292.125 69.675,292.495 70.700,292.800 71.285 C 293.105 71.870,293.356 72.651,293.357 73.019 C 293.359 73.388,293.505 73.779,293.683 73.889 C 293.861 73.999,294.351 75.169,294.773 76.489 C 295.195 77.810,295.657 78.890,295.800 78.890 C 295.943 78.890,296.183 79.782,296.333 80.872 C 296.483 81.962,296.744 82.854,296.914 82.854 C 297.083 82.854,297.339 83.739,297.483 84.820 C 297.626 85.901,297.896 86.880,298.082 86.995 C 298.268 87.110,298.544 88.193,298.695 89.402 C 299.078 92.461,301.623 94.865,302.676 93.162 C 302.811 92.944,303.584 92.765,304.395 92.765 C 306.548 92.765,308.448 89.597,306.877 88.627 C 306.681 88.505,306.396 87.335,306.244 86.026 C 306.092 84.718,305.830 83.647,305.661 83.647 C 305.493 83.647,305.238 82.763,305.094 81.681 C 304.951 80.600,304.660 79.608,304.448 79.478 C 304.237 79.347,304.063 78.804,304.063 78.272 C 304.063 77.740,303.905 77.304,303.712 77.304 C 303.519 77.304,303.240 76.501,303.093 75.520 C 302.946 74.539,302.681 73.736,302.504 73.736 C 302.327 73.736,302.063 72.987,301.916 72.071 C 301.770 71.155,301.506 70.219,301.330 69.990 C 301.154 69.761,300.680 68.637,300.278 67.493 C 299.875 66.348,299.426 65.411,299.279 65.411 C 299.131 65.411,298.897 64.698,298.758 63.826 C 298.618 62.953,298.342 62.240,298.144 62.240 C 297.946 62.240,297.662 61.686,297.513 61.009 C 297.213 59.640,295.320 55.773,294.850 55.567 C 294.684 55.494,294.549 55.240,294.549 55.003 C 294.549 54.297,292.132 49.554,291.773 49.554 C 291.590 49.554,291.323 49.019,291.179 48.365 C 291.036 47.711,290.775 47.175,290.599 47.175 C 290.424 47.175,290.173 46.863,290.042 46.482 C 289.679 45.427,288.210 43.063,287.639 42.615 C 287.360 42.396,287.005 41.816,286.850 41.327 C 286.694 40.837,286.420 40.436,286.240 40.436 C 286.061 40.436,285.802 39.990,285.665 39.445 C 285.528 38.900,285.241 38.454,285.027 38.454 C 284.813 38.454,284.638 38.257,284.638 38.015 C 284.638 37.553,282.280 34.385,281.767 34.159 C 281.602 34.087,281.466 33.819,281.465 33.565 C 281.464 33.310,280.929 32.532,280.276 31.835 C 279.623 31.138,279.088 30.449,279.088 30.302 C 279.088 30.156,278.375 29.344,277.502 28.497 C 276.630 27.651,275.917 26.861,275.917 26.743 C 275.917 26.413,275.096 25.484,273.195 23.661 C 272.243 22.749,271.262 21.770,271.015 21.487 C 269.777 20.071,266.167 16.654,265.906 16.652 C 265.743 16.651,264.916 15.937,264.070 15.064 C 263.223 14.192,262.363 13.479,262.157 13.479 C 261.952 13.479,261.364 13.033,260.852 12.488 C 260.340 11.943,259.724 11.497,259.484 11.497 C 259.243 11.497,258.741 11.140,258.368 10.704 C 257.994 10.268,257.462 9.911,257.185 9.911 C 256.909 9.911,256.459 9.554,256.187 9.118 C 255.915 8.682,255.508 8.325,255.283 8.325 C 254.895 8.325,252.555 6.820,252.131 6.297 C 252.022 6.163,251.487 5.916,250.942 5.748 C 250.396 5.580,249.861 5.333,249.752 5.199 C 249.434 4.807,248.027 3.961,247.275 3.708 C 246.893 3.580,246.581 3.318,246.581 3.125 C 246.581 2.933,246.358 2.772,246.085 2.768 C 245.813 2.765,244.341 2.140,242.815 1.381 C 239.028 -0.503,238.168 -0.455,237.284 1.685 M217.513 29.388 C 215.592 33.378,215.708 34.572,218.065 35.090 C 218.704 35.231,219.227 35.508,219.227 35.706 C 219.227 35.904,219.941 36.180,220.813 36.320 C 221.685 36.459,222.398 36.709,222.398 36.876 C 222.398 37.042,222.860 37.294,223.423 37.436 C 223.987 37.577,224.831 38.050,225.298 38.485 C 225.766 38.921,226.554 39.379,227.049 39.503 C 227.544 39.628,227.948 39.869,227.948 40.040 C 227.948 40.210,228.394 40.462,228.940 40.599 C 229.485 40.736,229.931 41.023,229.931 41.236 C 229.931 41.450,230.128 41.625,230.369 41.625 C 230.610 41.625,231.483 42.161,232.309 42.815 C 233.135 43.469,233.933 44.004,234.082 44.004 C 234.231 44.004,234.888 44.539,235.542 45.193 C 236.196 45.847,236.871 46.383,237.041 46.383 C 237.492 46.383,245.004 53.901,246.595 55.944 C 247.339 56.899,248.175 57.824,248.453 57.998 C 248.732 58.172,248.959 58.541,248.959 58.818 C 248.959 59.095,249.405 59.710,249.950 60.184 C 250.496 60.658,250.942 61.314,250.942 61.643 C 250.942 61.971,251.088 62.240,251.268 62.240 C 251.447 62.240,251.995 63.043,252.485 64.024 C 252.975 65.005,253.500 65.808,253.651 65.808 C 253.949 65.808,255.302 68.734,255.302 69.378 C 255.302 69.595,255.461 69.772,255.656 69.772 C 255.850 69.772,256.132 70.261,256.282 70.858 C 256.432 71.456,256.674 72.036,256.820 72.147 C 257.346 72.547,258.474 75.006,258.474 75.751 C 258.474 76.169,258.650 76.511,258.865 76.511 C 259.081 76.511,259.371 77.225,259.511 78.097 C 259.650 78.969,259.920 79.683,260.110 79.683 C 260.300 79.683,260.457 80.084,260.458 80.575 C 260.460 81.065,260.716 81.956,261.028 82.555 C 261.341 83.153,261.717 84.449,261.865 85.434 C 262.012 86.419,262.291 87.322,262.484 87.442 C 262.677 87.561,262.834 88.172,262.834 88.801 C 262.834 89.429,262.999 90.045,263.200 90.169 C 263.401 90.293,263.680 91.597,263.820 93.067 C 263.960 94.536,264.236 96.095,264.434 96.531 C 264.631 96.967,264.842 97.948,264.904 98.712 L 265.015 100.099 268.423 100.213 C 272.832 100.360,272.972 100.213,272.399 96.047 C 271.723 91.140,271.489 89.990,271.167 89.990 C 271.001 89.990,270.743 88.745,270.593 87.224 C 270.443 85.703,270.163 84.361,269.970 84.242 C 269.777 84.123,269.500 83.227,269.354 82.250 C 269.207 81.274,268.929 80.476,268.736 80.476 C 268.543 80.476,268.385 80.164,268.386 79.782 C 268.389 78.872,267.082 75.162,266.699 74.992 C 266.535 74.919,266.289 74.161,266.153 73.307 C 266.016 72.453,265.749 71.754,265.559 71.754 C 265.369 71.754,265.213 71.545,265.213 71.290 C 265.213 70.743,262.818 65.700,262.421 65.411 C 262.271 65.302,262.012 64.775,261.845 64.240 C 261.677 63.706,261.297 63.024,260.998 62.726 C 260.700 62.427,260.456 61.928,260.456 61.617 C 260.456 61.305,260.278 61.051,260.059 61.051 C 259.841 61.051,259.663 60.783,259.663 60.456 C 259.663 60.129,259.497 59.861,259.293 59.861 C 259.090 59.861,258.798 59.460,258.645 58.969 C 258.492 58.479,258.257 57.988,258.123 57.879 C 257.705 57.539,256.095 55.150,256.095 54.869 C 256.095 54.723,255.769 54.314,255.370 53.961 C 254.971 53.609,254.480 53.029,254.279 52.673 C 253.210 50.776,244.739 41.625,244.053 41.625 C 243.900 41.625,243.032 40.912,242.125 40.040 C 241.217 39.167,240.345 38.454,240.186 38.454 C 240.028 38.454,239.662 38.225,239.374 37.944 C 239.086 37.664,237.958 36.817,236.868 36.061 C 235.778 35.306,234.797 34.599,234.688 34.490 C 234.287 34.089,232.884 33.271,232.210 33.044 C 231.829 32.916,231.516 32.668,231.516 32.493 C 231.516 32.317,230.981 32.056,230.327 31.913 C 229.673 31.769,229.138 31.487,229.138 31.287 C 229.138 31.086,228.915 30.921,228.642 30.920 C 228.370 30.919,226.720 30.196,224.975 29.313 C 223.231 28.430,221.069 27.607,220.171 27.484 L 218.538 27.260 217.513 29.388 M37.265 250.149 C 37.265 250.367,36.587 250.545,35.758 250.545 C 34.930 250.545,34.038 250.759,33.776 251.021 C 33.201 251.596,33.140 254.760,33.697 255.104 C 33.915 255.239,34.093 255.785,34.093 256.317 C 34.093 256.849,34.251 257.284,34.445 257.284 C 34.638 257.284,34.916 258.087,35.064 259.068 C 35.211 260.050,35.476 260.852,35.653 260.852 C 35.829 260.852,36.087 261.558,36.225 262.421 C 36.363 263.283,36.921 264.826,37.465 265.849 C 38.009 266.873,38.454 268.040,38.454 268.444 C 38.454 268.847,38.618 269.177,38.819 269.177 C 39.020 269.177,39.301 269.713,39.445 270.367 C 39.589 271.021,39.851 271.556,40.028 271.556 C 40.205 271.556,40.452 271.961,40.576 272.456 C 40.700 272.951,41.166 273.746,41.610 274.223 C 42.055 274.700,42.418 275.212,42.418 275.361 C 42.418 275.882,44.147 279.088,44.428 279.088 C 44.583 279.088,44.823 279.534,44.960 280.079 C 45.096 280.624,45.383 281.070,45.597 281.070 C 45.811 281.070,45.986 281.338,45.986 281.665 C 45.986 281.992,46.161 282.260,46.375 282.260 C 46.589 282.260,46.873 282.693,47.005 283.222 C 47.138 283.751,47.498 284.281,47.806 284.399 C 48.113 284.517,48.365 284.855,48.365 285.151 C 48.365 285.447,48.811 286.108,49.356 286.620 C 49.901 287.133,50.347 287.699,50.347 287.879 C 50.347 288.059,51.060 288.920,51.933 289.792 C 52.805 290.664,53.519 291.511,53.521 291.675 C 53.525 292.242,59.049 297.603,62.889 300.766 C 66.509 303.749,66.935 304.063,67.352 304.063 C 67.593 304.063,67.790 304.214,67.790 304.397 C 67.790 304.581,68.414 305.068,69.177 305.479 C 69.941 305.890,70.565 306.350,70.565 306.501 C 70.565 306.652,71.100 306.893,71.754 307.037 C 72.408 307.180,72.944 307.445,72.944 307.625 C 72.944 307.805,74.148 308.549,75.619 309.278 C 77.091 310.008,78.355 310.738,78.427 310.902 C 78.500 311.065,78.768 311.205,79.022 311.213 C 79.277 311.220,80.198 311.571,81.070 311.992 C 81.943 312.413,82.968 312.764,83.350 312.771 C 83.731 312.779,84.044 312.963,84.044 313.181 C 84.044 313.399,84.445 313.583,84.936 313.590 C 85.426 313.597,86.174 313.865,86.597 314.185 C 87.020 314.505,87.857 314.767,88.457 314.767 C 89.056 314.767,89.654 314.940,89.785 315.152 C 89.916 315.364,90.911 315.655,91.997 315.799 C 93.084 315.943,94.068 316.216,94.185 316.405 C 95.037 317.784,96.802 316.015,97.039 313.545 C 97.142 312.473,97.382 311.596,97.573 311.596 C 97.763 311.596,97.919 311.103,97.919 310.502 C 97.919 309.188,97.007 308.537,94.665 308.179 C 93.729 308.036,92.785 307.786,92.567 307.623 C 92.349 307.460,91.579 307.200,90.855 307.045 C 90.132 306.890,89.062 306.514,88.477 306.209 C 87.892 305.904,87.101 305.653,86.720 305.652 C 86.338 305.650,86.026 305.471,86.026 305.253 C 86.026 305.035,85.680 304.856,85.256 304.856 C 84.833 304.856,84.385 304.692,84.261 304.490 C 84.136 304.289,83.501 304.007,82.850 303.864 C 82.198 303.721,81.665 303.460,81.665 303.283 C 81.665 303.107,81.058 302.848,80.316 302.709 C 79.574 302.570,78.866 302.193,78.742 301.872 C 78.619 301.551,78.245 301.288,77.911 301.288 C 77.577 301.288,77.304 301.152,77.304 300.986 C 77.304 300.683,76.130 299.967,74.827 299.475 C 74.445 299.332,74.133 299.056,74.133 298.864 C 74.133 298.671,73.893 298.513,73.599 298.513 C 73.305 298.513,72.653 298.157,72.151 297.721 C 71.648 297.284,71.066 296.928,70.859 296.928 C 70.651 296.928,70.130 296.482,69.701 295.937 C 69.272 295.391,68.750 294.945,68.540 294.945 C 68.135 294.945,57.086 284.038,57.086 283.638 C 57.086 283.436,54.883 280.453,54.311 279.881 C 53.787 279.357,52.329 277.100,52.329 276.813 C 52.329 276.634,51.979 276.236,51.551 275.927 C 51.123 275.619,50.663 274.866,50.528 274.254 C 50.394 273.642,50.139 273.142,49.962 273.142 C 49.785 273.142,49.528 272.696,49.391 272.151 C 49.254 271.606,48.982 271.160,48.785 271.160 C 48.589 271.160,48.310 270.624,48.167 269.970 C 48.023 269.316,47.741 268.781,47.540 268.781 C 47.340 268.781,47.175 268.424,47.175 267.988 C 47.175 267.552,47.005 267.195,46.797 267.195 C 46.589 267.195,46.301 266.571,46.158 265.808 C 46.015 265.045,45.755 264.420,45.580 264.420 C 45.406 264.420,45.142 263.707,44.995 262.834 C 44.848 261.962,44.573 261.249,44.384 261.249 C 44.195 261.249,43.922 260.622,43.779 259.857 C 43.635 259.091,43.359 258.367,43.166 258.248 C 42.973 258.128,42.815 257.595,42.815 257.063 C 42.815 256.531,42.659 256.095,42.469 256.095 C 42.279 256.095,42.003 255.337,41.856 254.410 C 41.322 251.036,40.473 249.752,38.774 249.752 C 37.944 249.752,37.265 249.931,37.265 250.149 M4.170 262.030 C 4.039 262.242,3.047 262.532,1.966 262.676 C 0.054 262.929,-0.000 262.973,-0.000 264.258 C -0.000 265.558,1.436 269.979,1.984 270.367 C 2.138 270.476,2.387 271.234,2.538 272.052 C 2.688 272.869,2.967 273.538,3.158 273.538 C 3.349 273.538,3.627 274.092,3.775 274.769 C 4.076 276.138,5.968 280.005,6.438 280.211 C 6.604 280.284,6.739 280.538,6.739 280.775 C 6.739 281.481,9.156 286.224,9.516 286.224 C 9.698 286.224,9.965 286.759,10.109 287.413 C 10.253 288.067,10.534 288.603,10.735 288.603 C 10.936 288.603,11.100 288.857,11.100 289.169 C 11.100 289.480,11.323 289.974,11.596 290.266 C 11.868 290.558,12.435 291.419,12.854 292.178 C 13.274 292.937,13.723 293.647,13.853 293.756 C 13.983 293.865,14.308 294.400,14.574 294.945 C 15.115 296.052,15.947 297.418,16.263 297.721 C 16.377 297.830,16.806 298.454,17.217 299.108 C 17.628 299.762,18.204 300.440,18.496 300.614 C 18.789 300.789,19.029 301.110,19.029 301.329 C 19.029 301.730,22.828 307.025,24.094 308.388 C 24.470 308.793,25.345 309.814,26.039 310.657 C 26.733 311.500,27.892 312.897,28.616 313.762 C 30.490 316.001,38.843 324.281,39.228 324.281 C 39.405 324.281,40.264 324.995,41.136 325.867 C 42.008 326.739,42.876 327.458,43.065 327.464 C 43.255 327.470,43.930 328.005,44.566 328.653 C 45.202 329.301,45.941 329.832,46.208 329.832 C 46.475 329.832,46.797 330.099,46.922 330.426 C 47.048 330.753,47.347 331.021,47.588 331.021 C 47.828 331.021,48.274 331.244,48.577 331.516 C 49.665 332.491,50.316 333.003,50.470 333.003 C 50.555 333.003,51.848 333.806,53.342 334.787 C 54.836 335.768,56.274 336.571,56.539 336.571 C 56.804 336.571,57.080 336.723,57.152 336.908 C 57.346 337.401,61.694 339.742,62.417 339.742 C 62.755 339.742,63.033 339.907,63.033 340.107 C 63.033 340.308,63.599 340.597,64.292 340.749 C 64.984 340.901,66.312 341.450,67.242 341.970 C 68.172 342.489,69.301 342.914,69.749 342.914 C 70.198 342.914,70.565 343.092,70.565 343.310 C 70.565 343.528,70.877 343.708,71.259 343.709 C 71.640 343.710,72.417 343.954,72.984 344.250 C 73.552 344.546,74.841 344.912,75.849 345.063 C 76.857 345.214,77.786 345.506,77.913 345.712 C 78.668 346.933,80.835 345.531,80.860 343.806 C 80.866 343.315,81.032 342.914,81.227 342.914 C 81.724 342.914,82.012 339.691,81.590 338.850 C 81.375 338.424,80.788 338.157,80.065 338.157 C 79.419 338.157,78.890 338.023,78.890 337.859 C 78.890 337.696,77.810 337.217,76.489 336.795 C 75.169 336.373,73.999 335.882,73.889 335.705 C 73.779 335.527,73.388 335.380,73.019 335.379 C 72.651 335.378,71.891 335.138,71.331 334.846 C 70.772 334.554,69.792 334.184,69.155 334.024 C 68.518 333.864,67.905 333.600,67.794 333.438 C 67.515 333.031,62.483 330.624,61.911 330.624 C 61.656 330.624,61.447 330.454,61.447 330.247 C 61.447 330.039,60.778 329.558,59.960 329.178 C 59.143 328.798,58.331 328.254,58.157 327.970 C 57.982 327.686,57.581 327.453,57.265 327.453 C 56.949 327.453,56.690 327.287,56.690 327.083 C 56.690 326.880,56.288 326.588,55.798 326.435 C 55.307 326.282,54.817 326.047,54.708 325.913 C 54.332 325.451,51.186 323.092,50.945 323.092 C 50.813 323.092,50.061 322.468,49.275 321.705 C 48.490 320.942,47.710 320.317,47.542 320.317 C 47.375 320.317,46.435 319.514,45.454 318.533 C 44.473 317.552,43.552 316.749,43.409 316.749 C 43.059 316.749,36.472 310.135,36.472 309.785 C 36.472 309.634,35.491 308.553,34.291 307.382 C 33.092 306.211,32.111 305.082,32.111 304.872 C 32.111 304.662,31.397 303.784,30.525 302.921 C 29.653 302.057,28.940 301.237,28.940 301.098 C 28.940 300.770,26.454 297.563,26.065 297.390 C 25.902 297.317,25.768 297.004,25.768 296.693 C 25.768 296.381,25.411 295.822,24.975 295.448 C 24.539 295.075,24.182 294.541,24.182 294.263 C 24.182 293.984,24.016 293.756,23.813 293.756 C 23.609 293.756,23.340 293.431,23.213 293.033 C 23.087 292.636,22.674 291.956,22.295 291.523 C 21.638 290.773,21.104 289.870,19.337 286.521 C 18.905 285.704,18.392 285.035,18.196 285.035 C 18.000 285.035,17.839 284.678,17.839 284.242 C 17.839 283.806,17.680 283.449,17.486 283.449 C 17.292 283.449,17.010 282.960,16.860 282.363 C 16.710 281.765,16.468 281.186,16.321 281.074 C 15.921 280.770,15.072 279.377,14.808 278.593 C 14.680 278.211,14.432 277.899,14.257 277.899 C 14.082 277.899,13.821 277.364,13.677 276.710 C 13.533 276.056,13.266 275.520,13.082 275.520 C 12.899 275.520,12.627 274.966,12.478 274.289 C 12.213 273.078,10.367 269.169,9.878 268.781 C 9.741 268.672,9.506 267.914,9.355 267.096 C 9.205 266.278,8.935 265.610,8.755 265.610 C 8.576 265.610,8.327 264.983,8.203 264.218 C 7.852 262.056,5.082 260.553,4.170 262.030 " stroke="none" fill="#000" fill-rule="evenodd"></path></g></svg>